<?xml version="1.0" encoding="UTF-8"?>
<svg version="1.1" xmlns="http://www.w3.org/2000/svg" width="256" height="256">
<path d="M0 0 C1.06207844 -0.00679667 1.06207844 -0.00679667 2.14561301 -0.01373065 C4.50052954 -0.02631528 6.85521303 -0.02475815 9.2101593 -0.02310181 C10.90598851 -0.02909088 12.601815 -0.0358973 14.29763794 -0.04345703 C18.89293857 -0.06108825 23.48816466 -0.06581127 28.08349586 -0.0670886 C30.95893927 -0.06851269 33.83436389 -0.07278722 36.70980263 -0.07808304 C46.75420453 -0.09657564 56.79855344 -0.10475484 66.8429718 -0.10317993 C76.18434803 -0.10197959 85.52549281 -0.12306291 94.8668105 -0.15466726 C102.90360172 -0.18088243 110.94031761 -0.19154499 118.97715122 -0.19026911 C123.76963717 -0.18976091 128.56191746 -0.19536521 133.35436058 -0.21662521 C137.86642391 -0.23609546 142.37808728 -0.23607246 146.89016533 -0.22159195 C148.53800801 -0.21951342 150.1858763 -0.22414718 151.83367538 -0.23631287 C168.25980101 -0.3496465 181.51365394 3.44415005 193.820755 14.76742554 C202.54346573 23.84728663 207.86713952 36.01411285 207.90068054 48.63417053 C207.90521165 49.34222283 207.90974277 50.05027512 207.91441119 50.77978355 C207.92699582 53.13470007 207.92543869 55.48938356 207.92378235 57.84432983 C207.92977142 59.54015904 207.93657784 61.23598554 207.94413757 62.93180847 C207.9617688 67.52710911 207.96649181 72.1223352 207.96776915 76.71766639 C207.96919323 79.5931098 207.97346776 82.46853442 207.97876358 85.34397316 C207.99725618 95.38837506 208.00543539 105.43272397 208.00386047 115.47714233 C208.00266013 124.81851856 208.02374345 134.15966334 208.0553478 143.50098103 C208.08156297 151.53777225 208.09222554 159.57448814 208.09094965 167.61132175 C208.09044145 172.40380771 208.09604575 177.196088 208.11730576 181.98853111 C208.136776 186.50059444 208.136753 191.01225781 208.12227249 195.52433586 C208.12019396 197.17217854 208.12482773 198.82004683 208.13699341 200.46784592 C208.25032704 216.89397154 204.45653049 230.14782447 193.133255 242.45492554 C184.05339392 251.17763626 171.8865677 256.50131005 159.26651001 256.53485107 C158.55845771 256.53938219 157.85040542 256.5439133 157.120897 256.54858172 C154.76598047 256.56116635 152.41129698 256.55960922 150.05635071 256.55795288 C148.3605215 256.56394195 146.66469501 256.57074837 144.96887207 256.57830811 C140.37357144 256.59593933 135.77834535 256.60066234 131.18301415 256.60193968 C128.30757074 256.60336376 125.43214612 256.6076383 122.55670738 256.61293411 C112.51230548 256.63142671 102.46795657 256.63960592 92.42353821 256.63803101 C83.08216198 256.63683066 73.7410172 256.65791399 64.39969951 256.68951833 C56.36290829 256.71573351 48.3261924 256.72639607 40.28935879 256.72512019 C35.49687284 256.72461198 30.70459255 256.73021628 25.91214943 256.75147629 C21.4000861 256.77094653 16.88842273 256.77092353 12.37634468 256.75644302 C10.728502 256.7543645 9.08063371 256.75899826 7.43283463 256.77116394 C-8.993291 256.88449757 -22.24714393 253.09070103 -34.554245 241.76742554 C-43.27695572 232.68756445 -48.60062951 220.52073823 -48.63417053 207.90068054 C-48.63870165 207.19262825 -48.64323276 206.48457595 -48.64790118 205.75506753 C-48.66048581 203.400151 -48.65892868 201.04546751 -48.65727234 198.69052124 C-48.66326141 196.99469203 -48.67006783 195.29886554 -48.67762756 193.6030426 C-48.69525879 189.00774197 -48.6999818 184.41251588 -48.70125914 179.81718469 C-48.70268322 176.94174127 -48.70695776 174.06631665 -48.71225357 171.19087791 C-48.73074617 161.14647601 -48.73892538 151.1021271 -48.73735046 141.05770874 C-48.73615012 131.71633252 -48.75723344 122.37518774 -48.78883779 113.03387004 C-48.81505297 104.99707882 -48.82571553 96.96036294 -48.82443964 88.92352933 C-48.82393144 84.13104337 -48.82953574 79.33876308 -48.85079575 74.54631996 C-48.87026599 70.03425663 -48.87024299 65.52259326 -48.85576248 61.01051521 C-48.85368395 59.36267253 -48.85831772 57.71480424 -48.8704834 56.06700516 C-48.98381703 39.64087953 -45.19002048 26.3870266 -33.866745 14.07992554 C-24.78688391 5.35721481 -12.62005769 0.03354102 0 0 Z " fill="#FEFEFE" transform="translate(48.36674499511719,-0.267425537109375)"/>
<path d="M0 0 C0 36.3 0 72.6 0 110 C9.24 110 18.48 110 28 110 C22.36734694 115.63265306 22.36734694 115.63265306 19.80078125 117.83203125 C18.95459229 118.5583374 18.95459229 118.5583374 18.09130859 119.29931641 C17.50430176 119.79866699 16.91729492 120.29801758 16.3125 120.8125 C15.69455566 121.34020996 15.07661133 121.86791992 14.43994141 122.41162109 C10.19971295 126.01796125 5.89713706 129.53281899 1.5234375 132.9765625 C-0.41394655 134.5300686 -2.31822421 136.10442303 -4.2109375 137.7109375 C-5.03053955 138.40485596 -5.03053955 138.40485596 -5.86669922 139.11279297 C-7.42471608 140.4360593 -8.9781043 141.76476966 -10.53125 143.09375 C-13 145 -13 145 -15 145 C-15.30421351 127.57129895 -15.53317878 110.14343071 -15.67355824 92.71267891 C-15.74048395 84.61842015 -15.83165173 76.52581447 -15.98071289 68.43261719 C-16.11063497 61.37517789 -16.19423534 54.31893587 -16.22315043 47.2603339 C-16.24004572 43.52496397 -16.2794838 39.79301768 -16.37449074 36.05875015 C-16.97577169 11.51117146 -16.97577169 11.51117146 -12.08969116 5.89447021 C-8.72870142 2.91849951 -4.63629218 0 0 0 Z " fill="#5E2FE4" transform="translate(149,44)"/>
<path d="M0 0 C0.28080626 17.55914751 0.49216346 35.11759069 0.62174606 52.67847252 C0.68352407 60.83312582 0.76768258 68.98638109 0.90527344 77.14013672 C1.02519676 84.25031198 1.10237068 91.35947462 1.12906194 98.47063315 C1.14465737 102.23371604 1.18106942 105.99390325 1.26876068 109.75605392 C1.82367338 134.48490426 1.82367338 134.48490426 -2.68103027 140.11895752 C-5.80425004 143.1214077 -9.51631538 146 -14 146 C-14 109.04 -14 72.08 -14 34 C-23.24 34 -32.48 34 -42 34 C-38.28187037 30.28187037 -34.64195585 27.04282168 -30.5 23.875 C-25.63284043 20.10612753 -20.86520767 16.25162188 -16.1875 12.25 C-1.84709328 0 -1.84709328 0 0 0 Z " fill="#5A29E4" transform="translate(121,65)"/>
</svg>
